<svg width="158" height="158" viewBox="0 0 158 158" fill="none" xmlns="http://www.w3.org/2000/svg">
<g filter="url(#filter0_d_1_4)">
<rect x="4" width="150" height="150" rx="16" fill="#7BB3E8"/>
<path d="M49.488 86.824L45.312 91H28.752V66.088L32.928 62.008H28.176V57.832H41.76L45.936 62.008V67.912L43.008 70.84H45.936L49.488 74.392V86.824ZM41.184 70.84V62.008H33.504V74.392L37.008 70.84H41.184ZM44.736 86.824V74.392H33.504V86.824H44.736ZM67.8064 74.392L63.7264 78.568H53.6464L57.7264 74.392H67.8064ZM93.0548 62.008H76.7348V70.264H87.7268L91.8068 74.392V86.824L87.7268 91H76.1108L71.9828 86.824V83.512L76.7348 78.952V86.824H87.0548V74.392H76.1108L71.9828 70.264V62.008L76.1108 57.832H88.8788L93.0548 62.008ZM111.711 66.088L107.535 70.264H104.559V86.824H110.463V91H103.983L99.8066 86.824V70.264H93.9026L98.0786 66.088H99.8066V62.584L104.559 57.832V66.088H111.711ZM131.254 84.376L124.582 91H120.694L114.07 84.376V64.936L118.774 69.688V83.608L122.662 87.352L126.502 83.608V69.688L131.254 64.936V84.376Z" fill="black"/>
</g>
<defs>
<filter id="filter0_d_1_4" x="0" y="0" width="158" height="158" filterUnits="userSpaceOnUse" color-interpolation-filters="sRGB">
<feFlood flood-opacity="0" result="BackgroundImageFix"/>
<feColorMatrix in="SourceAlpha" type="matrix" values="0 0 0 0 0 0 0 0 0 0 0 0 0 0 0 0 0 0 127 0" result="hardAlpha"/>
<feOffset dy="4"/>
<feGaussianBlur stdDeviation="2"/>
<feComposite in2="hardAlpha" operator="out"/>
<feColorMatrix type="matrix" values="0 0 0 0 0 0 0 0 0 0 0 0 0 0 0 0 0 0 0.25 0"/>
<feBlend mode="normal" in2="BackgroundImageFix" result="effect1_dropShadow_1_4"/>
<feBlend mode="normal" in="SourceGraphic" in2="effect1_dropShadow_1_4" result="shape"/>
</filter>
</defs>
</svg>
