<svg xmlns="http://www.w3.org/2000/svg" aria-label="Phone" role="img" viewBox="-87.04 -87.04 686.08 686.08" width="64px" height="64px" fill="#ffffff" stroke="#ffffff"><g id="SVGRepo_bgCarrier" stroke-width="0"><rect x="-87.04" y="-87.04" width="686.08" height="686.08" rx="343.04" fill="#ffffff" strokewidth="0"></rect></g><g id="SVGRepo_tracerCarrier" stroke-linecap="round" stroke-linejoin="round"></g><g id="SVGRepo_iconCarrier"><rect width="512" height="512" rx="15%" fill="#ffffff"></rect><path fill="#20df40" d="M395 338c-10-9-22-17-33-23-23-16-43-17-59 6-10 14-23 16-37 10-39-18-68-43-84-82-8-16-8-31 10-42 9-6 19-14 18-28-1-18-44-78-62-84-8-2-14-2-22 0-41 14-57 46-42 85a451 451 0 0 0 251 248l17 5c26 0 57-25 67-50 9-24-10-34-24-45z"></path><path fill="none" stroke="#20df40" stroke-linecap="round" stroke-width="17" d="M268 138s41-1 72 30c31 30 27 74 27 74m-87-63s18-2 33 14c15 15 13 34 13 34M255 98s64-3 111 44c47 48 43 114 43 114"></path></g></svg>